# xmcd
#
# Track frame offsets: 
#        150
#        16198
#        31483
#        46908
#        62028
#        74743
#        87498
#        100181
#        112989
#        125588
#        138660
#        139828
#        152942
#        166841
#        180206
#        194689
#        206880
#        218472
#        231167
#        242719
#        255602
#        268147
#        280814
#        286763
#        298864
#        311540
#        316864
#        319376
#        321913
#        328548
#        342757
#
# Disc length: 4757 seconds
#
# Revision: 0
# Processed by: cddbd v1.5.2PL0 Copyright (c) Steve Scherf et al.
# Submitted via: ExactAudioCopy v0.95b3
#
DISCID=dc12931f
DTITLE=Elvis Presley  - American Sound - Disc 03 - PC 83  
DYEAR=1900
DGENRE=
TTITLE0=Gentle on My Mind - Instrumental master
TTITLE1=Gentle on My Mind  +brass Mar 18th - strings Mar 19th - band and h
TTITLE1=armony Mar 20th
TTITLE2=Gentle on My Mind - Quad remix
TTITLE3=Gentle on My Mind - 1987 remix
TTITLE4=Don't Cry Daddy - Instrumental master
TTITLE5=Don't Cry Daddy  +brass Mar 19th - strings Mar 21st
TTITLE6=Don't Cry Daddy - Mono remix
TTITLE7=Don't Cry Daddy - 1987 remix
TTITLE8=Don't Cry Daddy - 2003 remix
TTITLE9=Poor Man's child - Take 12 - instrumental master
TTITLE10=Poor Man's child - Vocal overdub
TTITLE11=Poor Man's child - Composite mix
TTITLE12=Inherit The Wind - Take 4 - instrumental master
TTITLE13=Inherit The Wind  +strings May 5th - brass and backing vocals Ma
TTITLE13=y 6th
TTITLE14=Inherit The Wind - 1987 remix
TTITLE15=Mama Liked The Roses - Take 4 - instrumental master
TTITLE16=Mama Liked The Roses  +brass March 18th - strings March 19th
TTITLE17=Mama Liked The Roses  and backing vocals March 31st, 1970
TTITLE18=Mama Liked The Roses - 1987 remix
TTITLE19=My Little Friend - instrumental master
TTITLE20=My Little Friend  +brass March 18th - strings March 19th - back
TTITLE20=ing vocals March 25
TTITLE21=In the Ghetto - Take 1 - complete
TTITLE22=In the Ghetto - Take 2 - rehearsal, false start and breakdown
TTITLE23=In the Ghetto - Take 3 - false start and complete
TTITLE24=In the Ghetto - Take 4 - complete
TTITLE25=In the Ghetto - Take 7 - breakdown
TTITLE26=In the Ghetto - Take 8 - false start
TTITLE27=In the Ghetto - Take 9 - false start and breakdown
TTITLE28=In the Ghetto - Take 10 - breakdown
TTITLE29=In the Ghetto - Take 11 - complete
TTITLE30=In the Ghetto - Take 20 - false start and complete
EXTD=
EXTT0=
EXTT1=
EXTT2=
EXTT3=
EXTT4=
EXTT5=
EXTT6=
EXTT7=
EXTT8=
EXTT9=
EXTT10=
EXTT11=
EXTT12=
EXTT13=
EXTT14=
EXTT15=
EXTT16=
EXTT17=
EXTT18=
EXTT19=
EXTT20=
EXTT21=
EXTT22=
EXTT23=
EXTT24=
EXTT25=
EXTT26=
EXTT27=
EXTT28=
EXTT29=
EXTT30=
PLAYORDER=
